HIERARCHY
ROOT Hips
{
  OFFSET 0 0 0
  CHANNELS 6 Xposition Yposition Zposition Zrotation Xrotation Yrotation
  End Site
  {
    OFFSET 0 10 0
  }
}
MOTION
Frames: 2
Frame Time: 0.0333333
0 0 0 0 0 0
1 2 3 10 20 30
